<svg width="288" height="288" viewBox="0 0 288 288" fill="none" xmlns="http://www.w3.org/2000/svg">
<path d="M135.441 140.751L122.661 116.091C119.475 116.064 116.289 116.055 113.094 116.055V155.151H120.762V127.386L134.694 155.151H143.118V116.064H135.45V140.769L135.441 140.751ZM229.608 125.559C227.606 125.51 225.615 125.862 223.751 126.594C221.888 127.326 220.189 128.424 218.756 129.822C217.323 131.221 216.184 132.892 215.407 134.737C214.629 136.582 214.228 138.564 214.228 140.566C214.228 142.569 214.629 144.551 215.407 146.396C216.184 148.241 217.323 149.912 218.756 151.311C220.189 152.709 221.888 153.807 223.751 154.539C225.615 155.271 227.606 155.623 229.608 155.574C233.525 155.478 237.249 153.855 239.985 151.051C242.721 148.247 244.252 144.484 244.252 140.566C244.252 136.649 242.721 132.886 239.985 130.082C237.249 127.278 233.525 125.655 229.608 125.559V125.559ZM229.608 148.023C228.608 148.058 227.612 147.891 226.678 147.532C225.744 147.174 224.892 146.631 224.172 145.936C223.452 145.241 222.88 144.408 222.489 143.487C222.098 142.566 221.897 141.576 221.897 140.575C221.897 139.575 222.098 138.585 222.489 137.664C222.88 136.743 223.452 135.91 224.172 135.215C224.892 134.52 225.744 133.977 226.678 133.619C227.612 133.26 228.608 133.093 229.608 133.128C231.538 133.195 233.367 134.009 234.709 135.398C236.051 136.788 236.801 138.644 236.801 140.575C236.801 142.507 236.051 144.363 234.709 145.752C233.367 147.142 231.538 147.956 229.608 148.023ZM160.488 125.559C158.486 125.51 156.495 125.862 154.631 126.594C152.768 127.326 151.069 128.424 149.636 129.822C148.203 131.221 147.064 132.892 146.287 134.737C145.509 136.582 145.108 138.564 145.108 140.566C145.108 142.569 145.509 144.551 146.287 146.396C147.064 148.241 148.203 149.912 149.636 151.311C151.069 152.709 152.768 153.807 154.631 154.539C156.495 155.271 158.486 155.623 160.488 155.574C164.405 155.478 168.129 153.855 170.865 151.051C173.601 148.247 175.132 144.484 175.132 140.566C175.132 136.649 173.601 132.886 170.865 130.082C168.129 127.278 164.405 125.655 160.488 125.559V125.559ZM160.488 148.023C159.488 148.058 158.492 147.891 157.558 147.532C156.624 147.174 155.772 146.631 155.052 145.936C154.332 145.241 153.76 144.408 153.369 143.487C152.978 142.566 152.777 141.576 152.777 140.575C152.777 139.575 152.978 138.585 153.369 137.664C153.76 136.743 154.332 135.91 155.052 135.215C155.772 134.52 156.624 133.977 157.558 133.619C158.492 133.26 159.488 133.093 160.488 133.128C162.418 133.195 164.247 134.009 165.589 135.398C166.931 136.788 167.681 138.644 167.681 140.575C167.681 142.507 166.931 144.363 165.589 145.752C164.247 147.142 162.418 147.956 160.488 148.023Z" fill="#D4D8DD"/>
<path d="M207.576 145.602V132.255H213.732V126.207H207.792V118.107H200.988L199.044 126.207H194.328C192.267 126.207 190.476 126.747 188.757 127.944C187.186 129.051 186.02 130.641 185.436 132.471L182.952 126.531L177.984 126.423V155.142H186.516V141.597C186.516 140.4 186.696 139.662 187.092 138.519C187.875 136.206 189.189 134.244 191.493 132.93C192.672 132.255 192.798 132.255 194.112 132.255H199.476V147.807C199.746 156.348 208.521 156.564 214.911 154.827L213.831 149.103C210.177 149.958 207.576 150.201 207.576 145.611V145.602ZM261.18 125.955C258.327 126.486 256.05 128.133 253.395 130.788L251.676 126.351L246.735 126.279V155.277H254.826V136.089C254.826 133.407 261.288 131.004 263.988 134.307C264.699 135.18 264.636 135.414 264.636 136.458V155.142H272.871V135.162C272.871 132.894 271.791 130.68 270.387 128.916C268.335 126.342 265.41 125.181 261.18 125.973V125.955ZM277.956 126.207L277.38 129.195H277.371L276.786 126.207H275.796V129.996H276.426V126.828H276.435L277.029 129.996H277.686L278.289 126.828H278.298V129.996H278.928V126.207H277.956ZM272.799 126.882H273.771V130.005H274.446V126.882H275.418V126.207H272.79L272.799 126.882ZM103.509 98.8291H107.037V102.357H103.509V98.8291ZM103.509 91.8H107.037V95.3281H103.509V91.8V91.8ZM87.066 109.089H90.387V112.383H87.066V109.089ZM96.885 105.768H100.575V109.08H96.885V105.768ZM83.763 105.939H87.066V109.098H83.763V105.939V105.939ZM93.591 109.089H96.885V112.383H93.591V109.089ZM100.026 95.3371H103.509V98.8291H100.026V95.3371ZM93.591 102.33H90.378V109.089H93.591V105.768H96.885V102.33H100.017V98.8291H93.591V102.33Z" fill="#D4D8DD"/>
<path d="M90.387 115.686H87.066V112.374H81.567V114.759H81.198C73.4304 108.937 63.9865 105.786 54.279 105.777C29.367 105.777 9.08099 126.054 9.08099 150.975C9.08099 175.896 29.367 196.182 54.279 196.182C66.2643 196.168 77.7545 191.4 86.2294 182.925C94.7042 174.451 99.4717 162.96 99.486 150.975C99.4914 140.43 95.7932 130.218 89.037 122.121H90.774V119.358H93.618V112.365H90.414V115.677L90.387 115.686ZM76.122 172.836C70.281 178.668 62.523 181.89 54.27 181.89C46.017 181.89 38.259 178.668 32.418 172.845C26.586 167.004 23.364 159.237 23.364 150.993C23.364 142.749 26.577 134.991 32.418 129.141C35.2811 126.263 38.6868 123.982 42.4377 122.429C46.1887 120.877 50.2104 120.084 54.27 120.096C60.615 120.096 66.672 122.013 71.793 125.559V126.153H69.588V129.456H67.167C64.449 133.488 57.645 146.079 55.584 151.2C48.168 140.886 42.417 136.791 37.881 135.315C35.433 134.577 32.49 137.241 36.549 141.435C45.882 151.695 48.816 160.191 51.651 166.968C53.154 170.541 59.877 171.099 61.227 167.463C64.098 159.768 68.265 151.128 73.188 144.036V140.355H75.825V137.043H78.588V133.2H79.488C83.1822 138.401 85.164 144.623 85.158 151.002C85.158 159.246 81.945 167.013 76.113 172.845L76.122 172.836ZM157.212 173.313C155.583 172.71 154.44 172.188 153.702 171.549C153.325 171.242 153.025 170.851 152.826 170.407C152.627 169.963 152.536 169.479 152.559 168.993C152.559 167.94 152.865 167.067 153.585 166.455C154.287 165.861 155.367 165.528 156.942 165.528C158.671 165.521 160.374 165.951 161.892 166.779L162.63 165.159C161.93 164.773 161.191 164.462 160.425 164.232C159.264 163.917 158.064 163.769 156.861 163.791C154.764 163.791 153.189 164.313 152.127 165.177C151.571 165.642 151.129 166.227 150.835 166.888C150.54 167.549 150.4 168.269 150.426 168.993C150.426 170.793 151.047 172.026 152.055 172.962C153.09 173.925 154.548 174.582 156.168 175.23C157.743 175.851 158.985 176.373 159.849 177.057C160.304 177.392 160.669 177.835 160.913 178.345C161.156 178.855 161.27 179.417 161.244 179.982C161.265 180.52 161.156 181.054 160.927 181.541C160.699 182.028 160.357 182.454 159.93 182.781C158.897 183.479 157.665 183.82 156.42 183.753C155.025 183.753 153.828 183.483 152.802 183.078C151.99 182.759 151.217 182.348 150.498 181.854L149.571 183.321C150.282 183.879 151.29 184.473 152.55 184.896C153.648 185.265 154.935 185.517 156.375 185.517C158.652 185.517 160.416 184.95 161.622 183.969C162.236 183.457 162.725 182.811 163.051 182.081C163.377 181.351 163.532 180.556 163.503 179.757C163.534 178.982 163.389 178.21 163.079 177.499C162.769 176.789 162.301 176.157 161.712 175.653C160.569 174.654 158.976 173.961 157.203 173.304L157.212 173.313ZM171.315 183.519L167.184 170.127H164.88L170.352 186.606C169.821 188.415 168.732 189.531 166.869 189.531C166.374 189.531 165.969 189.432 165.627 189.378L165.348 191.052C165.889 191.226 166.453 191.32 167.022 191.331C169.794 191.331 171.252 189.864 172.116 187.101L177.498 170.127H175.266L171.315 183.519V183.519ZM196.38 169.848C194.364 169.848 192.501 171 191.034 172.584C190.413 170.964 189.54 169.848 187.524 169.848C185.409 169.848 183.636 171.153 182.214 172.674L181.557 170.127H180.279V185.67H182.511V174.168C183.906 172.773 185.4 171.774 186.831 171.774C188.892 171.774 189.135 173.331 189.135 174.969V185.661H191.376V174.132C192.834 172.638 194.292 171.774 195.696 171.774C197.748 171.774 198 173.331 198 174.969V185.661H200.232V174.933C200.232 172.422 199.458 169.839 196.38 169.839V169.848ZM209.997 169.848C207.693 169.848 206.019 170.631 204.561 171.621L205.398 173.142C206.793 172.395 208.224 171.747 209.808 171.747C212.265 171.747 212.949 172.899 212.949 175.167V175.95C209.871 176.418 207.288 177.039 205.857 177.876C205.171 178.235 204.603 178.782 204.218 179.453C203.834 180.125 203.65 180.892 203.688 181.665C203.688 184.212 205.677 185.922 208.377 185.922C210.211 185.864 211.95 185.096 213.228 183.78L213.912 185.679H215.19V175.329C215.19 171.945 213.759 169.857 209.997 169.857V169.848ZM212.949 182.34C211.896 183.15 210.366 184.086 208.593 184.086C206.73 184.086 205.956 183.123 205.956 181.539C205.956 180.828 206.082 180.36 206.478 179.865C207.315 178.812 209.556 178.092 212.94 177.435V182.349L212.949 182.34ZM227.718 169.848C225.36 169.848 223.524 171.153 222.093 172.773L221.436 170.127H220.158V185.67H222.399V174.258C223.794 172.764 225.441 171.774 227.025 171.774C229.257 171.774 229.644 173.331 229.644 174.969V185.661H231.876V174.933C231.876 172.422 231.012 169.839 227.718 169.839V169.848ZM241.281 184.176C239.787 184.176 239.535 183.339 239.535 181.845V171.747H243.018V170.127H239.535V165.681H238.014L237.357 170.127H234.963V171.747H237.294V182.007C237.294 184.554 238.446 185.931 241.173 185.931C241.983 185.931 242.82 185.715 243.405 185.436L243.063 183.888C242.343 184.068 241.911 184.203 241.254 184.203L241.281 184.176ZM251.595 169.848C247.905 169.848 245.475 173.079 245.475 177.903C245.475 182.817 247.932 185.922 251.811 185.922C252.804 185.96 253.795 185.798 254.724 185.445C255.653 185.093 256.502 184.557 257.22 183.87L256.257 182.565C254.925 183.474 253.8 184.113 251.991 184.113C249.192 184.113 247.986 182.151 247.833 178.515H257.562V178.02C257.562 172.638 255.384 169.839 251.595 169.839V169.848ZM247.869 176.904C248.049 173.241 249.516 171.558 251.631 171.558C253.962 171.558 255.141 173.367 255.267 176.904H247.869ZM270.603 182.565C269.572 183.567 268.188 184.123 266.751 184.113C263.178 184.113 262.674 180.54 262.674 178.056C262.674 175.41 263.07 171.657 266.625 171.657C268.009 171.66 269.353 172.119 270.45 172.962L271.386 171.468C270.054 170.365 268.363 169.788 266.634 169.848C261.873 169.848 260.325 174.195 260.325 178.02C260.325 181.755 261.999 185.913 266.634 185.913C267.572 185.94 268.506 185.768 269.373 185.408C270.24 185.048 271.021 184.508 271.665 183.825L270.603 182.547V182.565ZM134.145 183.519L130.005 170.127H127.71L133.173 186.606C132.642 188.415 131.553 189.531 129.699 189.531C129.195 189.531 128.799 189.432 128.457 189.378L128.178 191.052C128.722 191.227 129.289 191.321 129.861 191.331C132.624 191.331 134.091 189.864 134.955 187.101L140.337 170.127H138.105L134.163 183.519H134.145ZM125.775 176.202C125.721 175.577 125.604 174.958 125.424 174.357C125.37 174.195 125.316 174.024 125.244 173.871L125.046 173.421C124.846 173.017 124.601 172.637 124.317 172.287L124.038 171.972L123.741 171.693C123.638 171.606 123.533 171.522 123.426 171.441C123.327 171.36 123.21 171.288 123.102 171.216L122.778 171.009C122.461 170.823 122.127 170.669 121.779 170.55L121.446 170.442C121.338 170.406 121.221 170.388 121.113 170.361C121.005 170.334 120.888 170.316 120.78 170.307L120.456 170.262L120.141 170.235L119.835 170.226C119.242 170.231 118.652 170.313 118.08 170.469C117.9 170.523 117.729 170.595 117.567 170.658C117.236 170.789 116.924 170.965 116.64 171.18C116.496 171.288 116.361 171.387 116.217 171.513C116.082 171.629 115.952 171.752 115.83 171.882L115.803 171.909H115.632V163.719H113.481V185.166H115.074L115.542 183.645L115.56 183.582H115.722L115.749 183.627L115.821 183.735L115.911 183.852L115.929 183.879L116.01 183.987C116.055 184.041 116.091 184.095 116.145 184.14L116.298 184.293C116.352 184.338 116.406 184.401 116.478 184.446C116.541 184.5 116.604 184.554 116.685 184.599C116.766 184.644 116.829 184.707 116.901 184.752H116.91C117.067 184.87 117.24 184.967 117.423 185.04L117.729 185.175L118.026 185.283L118.062 185.301L118.422 185.4L118.8 185.472L119.214 185.517C119.559 185.542 119.905 185.539 120.249 185.508C120.447 185.49 120.636 185.454 120.834 185.427C121.026 185.393 121.216 185.345 121.401 185.283L121.941 185.094H121.959C122.332 184.945 122.685 184.752 123.012 184.518C123.174 184.401 123.336 184.284 123.489 184.14C123.642 183.996 123.795 183.861 123.939 183.699L123.957 183.681L124.353 183.204C124.748 182.617 125.08 181.989 125.343 181.332C125.527 180.825 125.657 180.3 125.73 179.766C125.865 178.87 125.904 177.962 125.847 177.057C125.847 176.769 125.829 176.454 125.802 176.166L125.775 176.202ZM123.597 178.749C123.575 179.126 123.533 179.502 123.471 179.874C123.435 180.054 123.399 180.234 123.345 180.405L123.192 180.9C123.138 181.06 123.075 181.216 123.003 181.368L122.787 181.8C122.71 181.937 122.626 182.069 122.535 182.196L122.256 182.547C122.166 182.655 122.049 182.763 121.932 182.862C121.815 182.961 121.707 183.051 121.572 183.132L121.185 183.366C121.059 183.438 120.915 183.501 120.771 183.546C120.627 183.591 120.474 183.645 120.321 183.681C120.168 183.717 120.006 183.735 119.844 183.762C119.677 183.78 119.508 183.789 119.34 183.789C119.223 183.789 119.106 183.789 118.998 183.771L118.665 183.726L118.35 183.663L118.107 183.591H118.08L118.044 183.573L117.765 183.465L117.495 183.348C117.405 183.303 117.315 183.267 117.243 183.213C117.171 183.159 117.081 183.114 117 183.069L116.775 182.916C116.705 182.862 116.633 182.811 116.559 182.763L116.37 182.601L116.19 182.439L116.028 182.277L115.884 182.115C115.804 182.015 115.726 181.913 115.65 181.809L115.632 181.782V173.718L115.659 173.691C115.781 173.57 115.911 173.456 116.046 173.349L116.46 173.034L116.469 173.025C116.604 172.926 116.748 172.845 116.892 172.755C117.036 172.665 117.198 172.584 117.36 172.512C118.004 172.207 118.708 172.051 119.421 172.053C119.538 172.053 119.655 172.053 119.781 172.071L120.141 172.116C120.511 172.178 120.873 172.281 121.221 172.422L121.572 172.611L121.905 172.845C122.135 173.028 122.346 173.233 122.535 173.457C122.635 173.582 122.725 173.714 122.805 173.853L123.048 174.294C123.131 174.457 123.203 174.626 123.264 174.798C123.327 174.96 123.372 175.167 123.426 175.392C123.471 175.635 123.525 175.914 123.552 176.202C123.588 176.517 123.624 176.85 123.633 177.174C123.651 177.516 123.669 177.849 123.669 178.155C123.642 178.344 123.633 178.551 123.624 178.749H123.597Z" fill="#D4D8DD"/>
</svg>
