<?xml version="1.0" encoding="UTF-8"?>
<svg id="Horizontal" xmlns="http://www.w3.org/2000/svg" viewBox="0 0 154.35 150">
  <defs>
    <style>
      .cls-1 {
        fill: #1d1d1b;
      }
    </style>
  </defs>
  <path class="cls-1" d="M13.74,150c-7.52,0-13.74-6.19-13.74-13.56s6.22-13.55,13.74-13.55c2.95,0,5.57,.74,7.86,2.2v-1.92h6.22v26.23h-6.22v-1.76c-2.29,1.32-4.91,2.35-7.86,2.35m-7.52-13.56c0,3.98,3.6,7.37,7.52,7.37,4.26,0,7.86-3.39,7.86-7.37s-3.6-7.66-7.86-7.66c-3.92,0-7.52,3.54-7.52,7.66m37.65,13.56c-7.53,0-13.76-6.19-13.76-13.56s6.22-13.55,13.76-13.55c2.94,0,5.55,.74,7.85,2.2v-10.9h6.55v35.22h-6.55v-1.76c-2.3,1.32-4.91,2.35-7.85,2.35m-7.53-13.56c0,3.98,3.6,7.37,7.85,7.37,3.93,0,7.53-3.39,7.53-7.37s-3.6-7.66-7.53-7.66c-4.25,0-7.85,3.54-7.85,7.66m31.42,12.97h-6.55v-26.23h6.55v26.23Zm-6.55-35.22h6.55v6.49h-6.55v-6.49Zm30.44,0h6.55v35.22h-6.55v-1.76c-1.96,1.32-4.91,2.35-7.53,2.35-7.53,0-13.75-6.19-13.75-13.56s6.22-13.55,13.75-13.55c2.62,0,5.24,.74,7.53,2.2v-10.9Zm-15.06,22.25c0,3.98,3.61,7.37,7.53,7.37,4.26,0,7.53-3.39,7.53-7.37s-3.27-7.66-7.53-7.66c-3.92,0-7.53,3.54-7.53,7.66m37.32,13.56c-7.53,0-13.75-6.19-13.75-13.56s6.21-13.55,13.75-13.55c2.95,0,5.56,.74,7.53,2.2v-1.92h6.55v26.23h-6.55v-1.76c-1.97,1.32-4.58,2.35-7.53,2.35m-7.21-13.56c0,3.98,3.6,7.37,7.53,7.37s7.2-3.39,7.2-7.37-3.27-7.66-7.2-7.66-7.53,3.54-7.53,7.66m35.67,13.56c6.55,0,11.79-2.65,11.79-9,0-3.69-2.61-6.19-6.87-7.21-4.26-1.03-9.5-.89-9.5-3.68,.33-1.77,1.97-2.21,4.58-2.21,3.93,0,3.93,2.06,4.26,3.54h6.55c-.65-5.01-4.58-8.54-11.13-8.54-6.88,0-10.81,3.69-10.81,8.39,0,2.65,1.31,5.16,3.6,6.35,1.64,.73,3.93,1.32,6.55,1.76,2.95,.29,5.56,.59,5.9,2.65,0,1.33-1.64,3.1-4.58,3.1-4.26,0-5.24-2.5-5.24-4.13h-6.88c0,5.31,4.58,9,11.78,9m-45.16-85.9c0-3.54,.33-6.78,.33-10.76,0-21.36-9.5-43.46-19.97-53.34-10.81,9.88-19.97,31.98-19.97,53.34,0,3.98,0,7.22,.66,10.76h38.96Zm-42.56,0c-1.63-2.8-3.92-5.6-6.22-8.4C35.35,40.37,15.06,30.95,1.31,30.06c-.98,9.87,1.97,21.8,8.18,34.04H54.66Zm22.92,42.87c3.27-3.24,6.54-7.81,9.49-13.7h-19.31c3.27,5.89,6.22,10.46,9.82,13.7m-10.81-.89c0-3.38,0-7.95-.33-12.81h-31.11c10.81,8.1,22.92,12.22,31.43,12.81M154.18,30.06c-14.07,.88-34.04,10.31-47.14,25.63-2.61,2.8-4.58,5.6-6.21,8.4h44.84c6.22-12.23,9.49-24.16,8.51-34.04m-34.36,63.21h-30.77c-.99,4.86-.99,9.43-.99,12.81,9.18-.59,20.96-4.71,31.76-12.81m13.74-11.21H21.6c1.64,2.07,3.61,4.14,5.57,5.46H127.33c2.3-1.32,4.59-3.39,6.22-5.46m9.17-12.22c-.99,1.92-2.61,4.42-4.26,6.04H16.36c-.98-1.32-2.95-3.97-3.93-6.04"/>
</svg>