<?xml version="1.0" encoding="UTF-8"?><svg id="Circular" xmlns="http://www.w3.org/2000/svg" viewBox="0 0 200 150"><path d="M125.27,77.9c.13,14.01,12.29,18.68,12.43,18.74-.1,.33-1.94,6.65-6.41,13.17-3.86,5.64-7.87,11.26-14.18,11.38-6.2,.11-8.19-3.68-15.28-3.68s-9.3,3.56-15.17,3.79c-6.09,.23-10.73-6.1-14.62-11.72-7.95-11.5-14.03-32.49-5.87-46.66,4.05-7.04,11.3-11.49,19.16-11.61,5.98-.11,11.63,4.02,15.28,4.02s10.51-4.98,17.73-4.25c3.02,.13,11.49,1.22,16.94,9.19-.44,.27-10.11,5.9-10.01,17.62m-11.65-34.41c3.23-3.91,5.41-9.36,4.82-14.78-4.66,.19-10.3,3.11-13.64,7.02-3,3.46-5.62,9.01-4.91,14.32,5.2,.4,10.5-2.64,13.74-6.56"/></svg>