<?xml version="1.0" encoding="utf-8"?>
<!-- Generator: Adobe Illustrator 26.0.1, SVG Export Plug-In . SVG Version: 6.00 Build 0)  -->
<svg version="1.1" xmlns="http://www.w3.org/2000/svg" xmlns:xlink="http://www.w3.org/1999/xlink" x="0px" y="0px"
	 viewBox="0 0 200 150" style="enable-background:new 0 0 200 150;" xml:space="preserve">
<g id="Horizontal_00000165216499462919765880000014409336214601882248_">
</g>
<g id="Circular_00000052085595928458920340000010409874810711327929_">
	<g>
		<path d="M148.3,29.3h-16.6v1.4h4.4v85.7c-0.1,1.9-0.8,2.5-3.5,2.6h-0.9v1.6h18.7V119h-2c-3.1-0.1-4.3-1.4-4.3-4.1V80.4h5.4
			c7.9,0,12.5-3.8,12.5-8.9V38.9C162,33.8,158.1,29.3,148.3,29.3z M154,73.2c0.2,2.8-2,5.3-4.8,5.4c-0.2,0-0.4,0-0.5,0H144V30.7h4.2
			c3.2,0,5.8,2.6,5.8,5.8c0,0,0,0,0,0.1L154,73.2z"/>
		<path d="M112.9,114.8L112.9,114.8l-10.6-85.6h-7.1L84.9,114c-0.6,3-0.9,4.9-5.8,5v1.6h12.5V119c-3.5,0-5.1-2-4.8-4.2L91,80.4h9.7
			l4.4,35.5c0,2.1-0.2,2.9-2.8,3.1h-1.2v1.6h16.6V119h-0.4c-2.3,0.1-4.3-1.7-4.4-4C112.9,114.9,112.9,114.8,112.9,114.8z M91.2,78.7
			L95.6,42l5,36.8L91.2,78.7z"/>
		<path d="M50.8,80.4h4.9v34.5c0.1,2.8-2.1,5.2-5,5.3c0,0-0.1,0-0.1,0c-2.8-0.1-4.9-2.4-4.8-5.2c0,0,0-0.1,0-0.1V37c0-2.1,0.4-7,4-7
			c3,0,5,2.7,6,6.9c1,4.3,1.6,14.8,1.6,19.2c0,1.5,0.5,2,2.2,2h3.1V29.2h-2.2v1.3c0,1.5-0.9,1.4-1.7,0.9c-2.7-1.8-5.8-2.8-9-2.9
			C45,28.4,38,30.4,38,39.7v67.9c0.1,11.8,6.3,13.9,12.5,14.1c4.8,0,7.1-2.3,9-3c1-0.4,2.1,0.5,2.1,2.3h2V80.4h4v-1.7H50.8V80.4z"/>
	</g>
</g>
</svg>
