<?xml version="1.0" encoding="UTF-8"?><svg id="Circular" xmlns="http://www.w3.org/2000/svg" viewBox="0 0 200 150"><defs><style>.cls-1{fill-rule:evenodd;}</style></defs><path d="M101.35,107.68c-2.58,0-5.49-.19-7.04-.59-15.69-4.02-76.74-21.28-89.73-26.1C.65,79.53,.02,77.09,0,75.76c-.04-2.25,1.58-4.5,3.92-5.46,9.83-4.02,35.61-11.27,58.35-17.67,13.39-3.77,26.04-7.33,34.43-9.93,1.68-.52,5.25-.57,7.35,.15,11.01,3.78,38.08,11.34,59.82,17.41,16.4,4.58,29.35,8.19,32.27,9.28,2.33,.87,3.91,3.08,3.86,5.39-.03,1.18-.58,4.09-5.05,5.52-16.26,5.18-74.88,22.94-88.99,26.89-.81,.23-2.6,.34-4.6,.34Zm-1.27-63.02c-1.09,0-2.12,.11-2.68,.28-8.42,2.61-21.08,6.18-34.49,9.95-22.68,6.38-48.39,13.62-58.09,17.58-1.43,.58-2.48,1.98-2.46,3.24,.02,1.25,1.1,2.34,3.05,3.06h0c12.26,4.55,71.82,21.5,89.49,26.03,2.64,.68,9.2,.61,10.43,.26,14.1-3.94,72.67-21.69,88.91-26.87,2.14-.68,3.38-1.9,3.42-3.34,.03-1.32-.93-2.61-2.33-3.13-2.83-1.06-16.39-4.84-32.08-9.22-21.78-6.08-48.88-13.64-59.96-17.45-.84-.29-2.06-.41-3.21-.41Z"/><g><path class="cls-1" d="M132.23,61.54h4.89l-1.78,8.99s.88-.98,2.99-1.44c5.48-1.2,9.05,3.48,8.72,8.35-.58,8.78-11.73,11.46-14.52,6.13-.06,.44-.39,2.27-.39,2.27l-4.3-.12,4.38-24.19Zm2.06,15.78c-.78,5.15,7.53,6.58,8.57,0,.83-5.2-7.44-7.43-8.57,0Z"/><path class="cls-1" d="M60.91,64.07c-.45,2.13-1.37,7.96-1.37,7.96l6.71-.08,1.38-7.84,5.36,.03-3.28,21.07-5.99,.03,1.31-7.53h-6.89l-1.25,7.79h-5.61s2.35-14.54,3.9-21.4c1.81-.05,3.93-.12,5.72-.04Z"/><path class="cls-1" d="M88.03,71.19l.46-1.58h3.74s-1.94,10.36-2.44,16.13h-4.88s.17-.97,.24-1.32c-1.04,.72-2.11,1.6-3.66,1.85-13.42,2.13-9.72-20.56,3.9-16.91,.83,.33,2.05,1.14,2.62,1.83Zm-9.93,7.68c.2,1.88,2.3,3.14,4.15,2.91,2.57-.33,5.46-4.52,2.96-7.3-3.05-3.38-7.5,.82-7.11,4.4Z"/><path class="cls-1" d="M109.97,75.62l-4.81,.04s-.66-2.3-2.42-2.35c-6.64-.18-8.07,8.49-2.31,8.47,1.76,0,3.9-2.38,3.9-2.38l5.01-.11s-2.02,5.94-8.07,6.53c-5.46,.53-9.07-2.14-9.03-7.01,.05-5.46,5.09-9.94,11.36-9.72,5.96,.21,6.37,6.52,6.37,6.52Z"/><path class="cls-1" d="M127.56,78.63h-12.29c-.1,4.89,6.38,3.16,6.79,1.76,0,0,3.42,.04,4.3,.03-1.78,6.91-16.23,8.16-15.85-1.8,.25-6.45,6.07-9.83,9.27-9.83,10.27,0,7.78,9.83,7.78,9.83Zm-11.17-3c2.15,0,5.08,.04,7.03-.02,.4-3.52-5.8-3.72-7.03,.02Z"/></g></svg>