<?xml version="1.0" encoding="utf-8"?>
<!-- Generator: Adobe Illustrator 26.0.1, SVG Export Plug-In . SVG Version: 6.00 Build 0)  -->
<svg version="1.1" id="Circular_00000052085595928458920340000010409874810711327929_"
	 xmlns="http://www.w3.org/2000/svg" xmlns:xlink="http://www.w3.org/1999/xlink" x="0px" y="0px" viewBox="0 0 200 150"
	 style="enable-background:new 0 0 200 150;" xml:space="preserve">
<style type="text/css">
	.st0{display:none;}
	.st1{display:inline;}
</style>
<g id="Circular" class="st0">
	<path class="st1" d="M100,121.3c-0.5,0-0.9,0-1.4,0l9.5-26h13c2.3,0,4.8-1.8,5.6-3.9L137,63.2c1.7-4.6-1-8.4-5.9-8.4H113L97.8,96.5
		l0,0l-8.6,23.6C68.8,115.2,53.6,96.9,53.6,75c0-21.3,14.3-39.2,33.8-44.6l-8.9,24.4l0,0L63.9,95.3h9.8l12.5-34.4h7.4L81.1,95.3h9.8
		l11.7-32.1c1.7-4.6-1-8.4-5.9-8.4h-8.3l9.5-26.1c0.7,0,1.4,0,2.1,0c25.6,0,46.3,20.7,46.3,46.3C146.4,100.6,125.6,121.3,100,121.3
		L100,121.3z M128.1,60.8h-7.4l-10.3,28.4h7.4L128.1,60.8z"/>
</g>
<g>
	<path d="M193.7,35.3v-1.5h1c0.7,0,1.1,0.3,1.1,0.7c0,0.4-0.2,0.7-1,0.7H193.7z M197.3,38.4l-0.6-1.1c-0.5-1-0.7-1.1-1.2-1.3v0
		c0.9-0.1,1.5-0.7,1.5-1.5c0-0.9-0.5-1.5-1.7-1.5h-2.7v5.4h1.1v-2.2h0.2c0.5,0,0.7,0.1,0.9,0.3c0.2,0.2,0.5,0.7,0.7,1.1l0.4,0.9
		H197.3z M194.7,31.4c2.3,0,4.2,1.9,4.2,4.2c0,2.3-1.9,4.2-4.2,4.2c-2.3,0-4.2-1.9-4.2-4.2C190.5,33.3,192.3,31.4,194.7,31.4z
		 M194.7,30.4c-2.9,0-5.2,2.3-5.2,5.2c0,2.9,2.3,5.2,5.2,5.2c2.9,0,5.2-2.3,5.2-5.2C199.9,32.7,197.6,30.4,194.7,30.4z"/>
	<path d="M166.1,36c-11.3,0-19.1,4.5-24.4,10.7c-0.9-1.9-1.6-2.7-2.5-3.8c-4.3-4.9-11.3-7.2-20.6-7.2c-9.1,0-16.7,2.8-22,7.3
		c-2.7-4.5-9.3-7.4-17.2-7.4c-10.3,0-21.5,1.5-28.2,12.2c-0.2-3.9-0.5-5.9-2.7-8.2c-2.6-2.8-6.9-3.5-11.1-3.5
		c-7.6,0-13.3,3.3-17.4,10c-6,9.5-20.4,40.8-20.1,55.9c0.2,9.8,6.8,16.8,18.5,17.1c9.2,0.2,16.4-2.2,21-6.9
		c4.1,4.5,10.4,7.1,17.9,7.1c8.4,0,16.8-2.5,21.7-8c4.2,5.1,10.8,8.1,19.2,8.1c11.1-0.1,20.8-5.3,27.1-13.3
		c3.5,9.5,12.3,13.3,22,13.3c21.1,0,30.4-14.5,38.2-37.5c1.7-5.2,4.1-13.8,4.5-21.1C190.8,48.8,185.7,36,166.1,36z M25.4,93.8
		c10.9-1.9,13.7,2.1,13.4,5.7c-1,11-11.1,13.4-19.8,13.2c-6.3-0.1-12-3.1-12.2-10.4c-0.3-12.9,12.8-42.6,19-52.5
		c2.9-4.7,6.3-7,11.9-7c5.3,0,6.6,2.7,6.5,5.9C43.9,57.4,30,83.6,25.4,93.8z M61.1,83.7c-0.7,2-2.1,6.1-3.2,10.4
		c3.6-0.9,6.3-1.5,10.9-1.4c5.3,0.1,8.6,2.3,8.6,6.7c0,10.5-11.6,13.6-19.7,13.6C48.8,113,41,108,41,98.3c0-11.4,6.2-28.6,12-40.1
		c7.1-14.1,14.4-16,26.9-16c5.5,0,11.8,2.4,11.8,7.5c0,7.2-6.1,9.9-12.1,10.3c-2.6,0.1-6.5,0.3-8.9,0.1c0,0-2,3.1-4.1,8.5
		c11.2-1.6,15.9,1,14,7.4C77.9,84.8,70.3,85.4,61.1,83.7z M116.1,56.5c-3,0-5,1.9-6.5,4c-3.2,4.6-10.3,22.8-11.4,30.3
		c-0.8,5.1,1.5,6.2,3.9,6.2c3.9,0,8.2-4.1,9.7-10.9c0,0-7.4-0.2-5.4-6.7c2-6.4,5.7-7.7,12-8c12.3-0.5,11.1,8.6,10.1,13.4
		c-3.2,15.7-14.4,28.3-30.2,28.3c-10.8,0-17.5-6-17.5-17c0-7.9,3.9-20.2,7-27.4c6.6-15.4,13.5-26.1,31.1-26.1
		c10.6,0,18.9,3.8,17.7,13.7c-0.9,7.3-4.5,11.5-11.1,12c-1.8,0.1-9.4,0-6.9-7.2C119.4,58.5,119.8,56.5,116.1,56.5z M182.5,69.5
		c-1.9,9.3-6,20.2-10.6,28.4c-7.4,13.3-16.4,15.2-24.3,15.1c-7.9-0.1-16.7-3-16.8-15.1c0-8.7,3.7-21,6.9-29
		c5.6-14.6,11.2-26.5,29.2-26.3C187.9,42.8,184.1,61.4,182.5,69.5z M167.6,60.4c-0.2,5.6-8.4,27.9-11.3,32.9
		c-1.3,2.1-2.7,3.9-5.2,3.9c-2.2,0-3.2-1.6-3.3-3.4c-0.2-5,9.1-30.3,12.3-34.4c1.4-2.2,3-2.5,4.8-2.5
		C167.4,56.8,167.7,58.7,167.6,60.4z"/>
</g>
</svg>
