<?xml version="1.0" encoding="UTF-8"?><svg id="Circular" xmlns="http://www.w3.org/2000/svg" viewBox="0 0 200 150"><path d="M83.82,63.21c-3.61,0-7.72,1.67-10.23,5.03h0s0,0,0,0v-4.5s-8.61,0-8.61,0v31.37h8.61v-17.85c0-3.21,2.49-6.63,7.1-6.63,3.56,0,7.25,2.48,7.25,6.63v17.85h8.61v-19.44c0-7.21-5.16-12.45-12.74-12.45"/><polygon points="157.78 63.74 149.99 85.11 142.21 63.74 132.37 63.74 145.28 95.1 154.71 95.1 167.62 63.74 157.78 63.74"/><path d="M55.82,85.46c-3.63,2.68-5.7,3.32-9,3.32-2.98,0-5.3-.92-6.95-2.54l22.02-9.14c-.48-3.4-1.77-6.44-3.76-8.76-2.89-3.36-7.18-5.14-12.39-5.14-9.47,0-16.61,6.99-16.61,16.22s7.16,16.21,17.56,16.21c5.83,0,11.79-2.76,14.58-5.99l-5.45-4.19Zm-16.55-12.27c1.47-1.97,3.8-3.13,6.63-3.13,3.1,0,5.46,1.77,6.68,4.39l-15.05,6.24c-.41-3.2,.41-5.71,1.75-7.51Z"/><polygon points="28.31 87.2 8.73 87.2 8.73 54.36 0 54.36 0 95.11 28.31 95.11 28.31 87.2"/><path d="M183.08,95.64c-9.42,0-16.8-7.02-16.8-16.21s7.43-16.21,16.92-16.21,16.8,7.02,16.8,16.21-7.43,16.21-16.92,16.21m0-25.04c-4.81,0-8.3,3.64-8.3,8.83s3.7,8.83,8.42,8.83,8.3-3.75,8.3-8.83-3.7-8.83-8.42-8.83"/><path d="M116.77,95.64c-9.42,0-16.8-7.02-16.8-16.21s7.43-16.21,16.92-16.21,16.8,7.02,16.8,16.21-7.43,16.21-16.92,16.21m0-25.04c-4.81,0-8.3,3.64-8.3,8.83s3.7,8.83,8.42,8.83,8.3-3.75,8.3-8.83-3.7-8.83-8.42-8.83"/></svg>