<?xml version="1.0" encoding="UTF-8"?><svg id="Circular" xmlns="http://www.w3.org/2000/svg" viewBox="0 0 200 150"><path d="M39.77,88.03c.1-.99,.21-1.98,.31-2.97,.17-1.72,.46-3.46,.05-5.18-.69-2.85-2.94-4.61-6-4.71-1.44-.05-2.88-.12-4.32,.06-.2,.03-.39,0-.62-.25,1.87-.44,3.66-.84,5.44-1.28,1.97-.49,3.87-1.2,5.69-2.12,3.48-1.77,5.31-4.83,6.65-8.29,.31-.79,.62-1.58,.94-2.37,.12-.28,.12-.67,.65-.73-.09,1.24-.19,2.45-.28,3.66-.08,1.02-.05,2.03,.05,3.04,.21,2.03,1.51,3.39,3.63,3.83,2.62,.54,5.22,.09,7.82-.17,5.6-.54,11.2-1.12,16.81-1.69,2.38-.24,4.75-.51,7.13-.75,.42-.04,.85-.15,1.23,.15,1.35,1.07,3,1.41,4.61,1.83,1.8,.47,3.62,.89,5.34,1.63,3.56,1.52,5.43,5.2,4.64,8.98-1.06,5.09-4.22,8.46-8.88,10.34-6.3,2.54-12.82,2.96-19.43,1.23-.16-.04-.31-.1-.47-.16-1.26-.45-1.25-.44-.85-1.72,.56-1.81,1.11-3.63,1.66-5.44,.17-.56,1.53-1.21,2.05-.98,.18,.08,.18,.24,.22,.4,.97,4.12,2.43,5.52,6.5,5.86,2.91,.25,5.75-.07,8.26-1.83,.94-.65,1.59-1.52,2.05-2.52,.86-1.85,.3-3.43-1.54-4.46-1.52-.85-3.21-1.28-4.87-1.8-2.34-.73-4.7-1.42-6.69-2.97-1.77-1.38-2.63-3.21-2.64-5.44-.01-1.23,0-1.13-1.16-1.04-1.33,.1-1.87,.69-2.21,2-2.78,10.66-8.37,19.61-16.81,26.71-5.65,4.76-12.1,7.96-19.45,9.16-4.83,.78-9.57,.46-13.96-1.89-4.91-2.62-7.88-6.8-9.28-12.13-1.45-5.54-1.02-11.02,.51-16.47,2.44-8.66,6.85-16.16,13.28-22.45,6.42-6.28,13.93-10.59,22.83-12.21,4.77-.86,9.52-.8,14.07,1.19,4.31,1.88,7.23,5.07,8.86,9.46,1.71,4.58,1.65,9.29,.96,14.04-.08,.56-.43,.55-.84,.58-3.33,.26-6.66,.53-9.99,.8-1.08,.09-2.16,.13-3.23,.26-.67,.08-.87-.06-.73-.78,.82-4.19,1.21-8.42,.92-12.69-.12-1.78-.45-3.51-1.13-5.15-1.78-4.32-5.07-5.52-9.51-4.57-4.42,.94-7.67,3.68-10.41,7.11-3.75,4.68-6.18,10.06-8.12,15.68-2.3,6.67-3.91,13.5-4.63,20.52-.33,3.2-.35,6.4,.48,9.56,1.38,5.22,4.85,6.96,9.86,6.08,5.38-.95,9.14-4.31,12.19-8.58,3.31-4.62,5.44-9.82,7.17-15.19,.73-2.27,1.31-4.59,1.93-6.89,.18-.65,.08-.79-.62-.66-3.54,.67-6.97,1.53-9.66,4.18-1.9,1.87-3.08,4.21-4.34,6.5-.67,1.22-1.34,2.45-1.85,3.76l-.32-.09Z"/><path d="M83.86,66.3c.31,.81-.19,.9-.89,.95-2.15,.17-4.3,.4-6.45,.61-.91,.09-.98-.02-.58-.88,1.67-3.62,4.55-5.91,8.15-7.4,3.56-1.47,7.31-1.92,11.12-2.1,2.55-.12,5.1-.03,7.64,.26,.72,.09,.84,.26,.61,.97-.71,2.21-1.32,4.44-1.98,6.67-.15,.49-1.55,1.04-1.96,.79-.22-.13-.14-.34-.15-.52-.2-3.32-1.42-4.82-4.64-5.26-3.06-.42-6.02,.03-8.63,1.83-1.37,.95-2.29,2.23-2.24,4.08Z"/><path d="M188.76,43.92c-.24-.3-.61-.12-.92-.04-4.33,1.07-7.81,3.43-10.45,7.01-.44,.59-.82,1.23-1.22,1.84,.05-1.17,.25-2.3,.1-3.44-.26-1.94-1.28-2.98-3.21-3.26-1.12-.16-2.22,.03-3.31,.26-3.78,.79-7,2.66-9.85,5.2-.49,.44-.76,.55-1.22-.06-.67-.89-1.68-1.34-2.72-1.66-2.74-.83-5.51-.68-8.27-.18-6.51,1.19-12.19,4.05-17.03,8.56-3.51,3.26-6.25,7.03-7.63,11.68-.8,2.69-.97,5.41-.05,8.11,.61,1.8,.67,1.82-.88,2.92-1.64,1.16-3.35,2.21-5.47,2.17-1.2-.03-1.99-.83-2.11-2.03-.1-1.03,.13-2.03,.42-3,1.98-6.67,3.99-13.32,5.98-19.99,.16-.55,.46-.78,1.02-.86,1.62-.22,3.23-.49,4.85-.75,2.37-.37,2.35-.38,2.92-2.67,.14-.55,.01-.64-.48-.57-2.07,.32-4.15,.59-6.2,.97-.8,.15-.93-.01-.71-.75,1.1-3.52,2.18-7.05,3.26-10.58,.42-1.38,.42-1.28-.99-1.24-1.14,.04-1.75,.55-2.29,1.48-.82,1.41-1.77,2.75-2.69,4.1-3.08,4.52-6.88,8.16-12.29,9.7-1.14,.33-1.64,.9-1.92,1.98-.22,.84,.11,.81,.7,.7,.87-.15,1.74-.3,2.61-.44,.49-.08,.82-.15,.59,.62-1.89,6.15-3.73,12.32-5.6,18.48-.55,1.82-1.04,3.65-.96,5.58,.11,2.54,1.74,4.48,4.15,4.89,1.67,.29,3.34,.21,4.98-.14,4.63-.98,8.57-3.32,12.14-6.33,.83-.7,1.37-.91,2.12,0,.28,.34,.73,.54,1.13,.77,3.86,2.23,7.96,2.34,12.17,1.38,6.86-1.57,11.95-5.7,16.01-11.25,.19-.26,.85-.68,.12-.99-.6-.25-1.13-1.37-1.97-.31-1.67,2.09-3.64,3.85-5.88,5.29-2.74,1.77-5.65,3.02-9.01,2.9-2.07-.08-3.47-1.07-4.13-3.01-.64-1.9-.43-3.8,0-5.7,.1-.44,.36-.53,.74-.64,1.95-.55,3.91-1.07,5.83-1.73,5.35-1.84,10.52-4.03,14.78-7.89,1.98-1.79,3.59-3.82,3.87-6.61,.02-.15,.07-.34,.17-.44,1.08-1.07,2.26-2.01,3.8-2.31,1.08-.21,1.76,.41,1.78,1.52,.01,.7-.19,1.36-.38,2.02-2.46,8.26-4.93,16.52-7.41,24.78-.32,1.06-.32,1.04,.83,.87,3.13-.48,6.27-.97,9.41-1.39,.86-.12,1.27-.47,1.51-1.31,1.67-5.74,3.4-11.47,5.11-17.2,.57-1.91,1.44-3.66,2.94-5.01,2.09-1.87,4.6-2.42,7.31-2.1,.75,.09,1.06,.03,1.29-.8,.76-2.77,1.66-5.5,2.5-8.25,.08-.27,.3-.59,.11-.84Zm-42.15,18.03c-2.99,2.94-6.66,4.78-10.51,6.31-.29,.12-.8,.42-.57-.36,1.36-4.49,3.04-8.84,6.17-12.44,1.5-1.73,3.32-3.05,5.68-3.38,1.88-.26,2.95,.73,2.89,2.62-.18,2.94-1.63,5.26-3.66,7.26Z"/><path d="M179.17,73.46c-1.67-.01-3.13,1.24-3.16,2.72-.03,1.65,1.32,2.93,3.12,2.94,1.84,0,3.24-1.19,3.24-2.79,0-1.62-1.37-2.85-3.2-2.86Zm0,5.17c-1.45,0-2.5-.97-2.51-2.31-.01-1.37,1.06-2.35,2.57-2.36,1.4,0,2.52,1.03,2.52,2.33,0,1.42-1.01,2.34-2.57,2.34Z"/><path d="M180.51,76.26c.31-.11,.37-.52,.32-.87-.05-.39-.33-.53-.67-.63-1.77-.51-2.2-.23-2.2,1.48,0,.43,0,.85,0,1.28,0,.18,.05,.34,.25,.35,.19,.01,.27-.12,.3-.3,.06-.37-.29-.94,.37-1.04,.59-.09,.64,.56,.96,.85,.07,.06,.11,.16,.17,.24,.14,.2,.33,.39,.56,.22,.31-.24-.06-.37-.15-.54-.21-.37-.82-.73,.09-1.05Zm-1.21-.15c-.33-.05-.79,.13-.81-.45-.02-.57,.36-.6,.79-.58,.39,.02,.92,0,.95,.46,.04,.58-.52,.54-.93,.57Z"/></svg>