<?xml version="1.0" encoding="UTF-8"?><svg id="Circular" xmlns="http://www.w3.org/2000/svg" viewBox="0 0 200 150"><path d="M189.89,73.13v4.17h2.93v4.14c.01,.37,0,.76-.08,1.08-.12,.77-.85,2.08-2.93,2.08s-2.79-1.31-2.91-2.08c-.05-.32-.07-.72-.07-1.08v-13.07c0-.46,.03-.97,.13-1.35,.14-.7,.76-2.07,2.84-2.07,2.19,0,2.73,1.44,2.86,2.07,.08,.41,.09,1.1,.09,1.1v1.59h7.2v-.94s.04-.98-.05-1.89c-.54-5.36-4.96-7.06-10.02-7.06s-9.41,1.71-10.04,7.06c-.06,.49-.14,1.37-.14,1.89v12.02c0,.52,.02,.93,.11,1.89,.48,5.21,4.99,7.07,10.05,7.07s9.58-1.86,10.06-7.07c.08-.96,.09-1.37,.1-1.89v-7.66h-10.11Z"/><path d="M103.35,90.17c5.11,0,9.33-1.75,10-6.48,.32-2.45,.08-4.04-.05-4.64-1.18-5.92-11.91-7.7-12.72-11.01-.13-.57-.09-1.17-.03-1.48,.21-.92,.82-1.92,2.59-1.92,1.65,0,2.62,1.03,2.62,2.58v1.75h7.05v-1.99c0-6.16-5.52-7.13-9.52-7.13-5.03,0-9.15,1.66-9.9,6.3-.21,1.26-.26,2.38,.07,3.81,1.22,5.77,11.28,7.45,12.74,11.11,.26,.69,.19,1.58,.05,2.1-.22,.94-.86,1.91-2.76,1.91-1.78,0-2.85-1.02-2.85-2.57v-2.74h-7.59v2.19c0,6.32,4.95,8.22,10.28,8.22"/><polygon points="78.73 62.72 78.92 89.19 86.09 89.19 85.45 60.59 73.8 60.59 70.19 82.94 66.59 60.59 54.92 60.59 54.31 89.19 61.45 89.19 61.64 62.72 66.56 89.19 73.81 89.19 78.73 62.72"/><path d="M10.4,90.31c5.16,0,9.4-1.76,10.09-6.54,.34-2.47,.09-4.07-.02-4.69-1.21-6-12.05-7.78-12.87-11.12-.14-.57-.11-1.18-.03-1.5,.19-.91,.82-1.93,2.62-1.93,1.67,0,2.65,1.04,2.65,2.6v1.77h7.13v-2.01c0-6.22-5.61-7.21-9.65-7.21-5.07,0-9.22,1.68-9.99,6.36-.2,1.28-.24,2.4,.06,3.85,1.24,5.84,11.39,7.53,12.88,11.23,.28,.69,.19,1.57,.05,2.11-.24,.97-.88,1.94-2.79,1.94-1.79,0-2.86-1.04-2.86-2.6v-2.75H0v2.18c0,6.39,5.02,8.32,10.4,8.32"/><path d="M130.2,90.05c5.26,0,9.47-1.73,9.98-7.07,.04-.29,.09-1.37,.06-1.9v-20.49h-7.23v21.15c0,.37,0,.78-.06,1.09-.15,.71-.75,2.07-2.75,2.07s-2.58-1.37-2.73-2.07c-.07-.31-.08-.72-.07-1.09v-21.15h-7.23v20.49c0,.53,.03,1.61,.07,1.9,.5,5.33,4.71,7.07,9.96,7.07"/><polygon points="154.78 65.13 162 88.89 172.19 88.89 172.19 60.59 165.12 60.59 165.51 83.62 158.78 60.59 148.17 60.59 148.17 88.89 155.19 88.89 154.78 65.13"/><polygon points="37.03 62.72 40.93 89.19 48.6 89.19 43.32 60.59 30.61 60.59 25.31 89.19 33.04 89.19 37.03 62.72"/></svg>