<?xml version="1.0" encoding="utf-8"?>
<!-- Generator: Adobe Illustrator 26.0.1, SVG Export Plug-In . SVG Version: 6.00 Build 0)  -->
<svg version="1.1" xmlns="http://www.w3.org/2000/svg" xmlns:xlink="http://www.w3.org/1999/xlink" x="0px" y="0px"
	 viewBox="0 0 200 150" style="enable-background:new 0 0 200 150;" xml:space="preserve">
<g id="Horizontal_00000165216499462919765880000014409336214601882248_">
</g>
<g id="Circular_00000052085595928458920340000010409874810711327929_">
	<path d="M30.3,63.8V64H23v-0.2c0-3.1-2.5-5.1-7.3-5.2c-4.7,0-7.2,2.1-7.3,5.2c0,5.1,22.9,5.2,22.8,17.6c0,6.6-7.7,12.3-15.5,12.3
		C8,93.7,0.2,88,0.2,81.4v-0.2h7.3v0.2c0,3,3,5.2,8.3,5.1c5.3,0,8.3-2.1,8.2-5.1c0-5.3-22.8-5.3-22.8-17.6c0-6.6,7.3-12.3,14.5-12.4
		C23,51.5,30.3,57.3,30.3,63.8z M48.9,80l-7-18.2L41,59.6h-7.8l1.9,4.9L45,90.2c-1.2,2.5-4.8,4.9-7.7,6.5l-1.8,1v8.4l5.4-3.1
		c2.8-1.6,7.9-5,10.3-9.2h0.1l0.2-0.4c0.4-0.7,0.6-1.4,0.8-2.1l10.3-26.8l1.9-4.9h-7.8l-0.9,2.3L48.9,80z M75.1,90.9
		c2.4,1.8,5.3,2.9,8.3,2.9c8.3,0.1,15.6-8.3,15.6-17.1c0.1-8.8-7.3-17.1-15.6-17.1c-3,0-5.8,1.1-8.3,2.9V52v-3.6h-7.3V52v24.7v13.5
		v3.6h7.3V90.9 M75.1,76.7c0-6.1,3.3-9.9,8.3-9.9c5,0.1,8.3,3.8,8.3,9.9c0.1,6.1-3.3,9.9-8.3,9.9C78.5,86.6,75.1,82.8,75.1,76.7
		 M105.6,90.1v3.6h7.3v-3.6v-27v-3.6h-7.3v3.6V90.1z M109.3,53.8L109.3,53.8c2.7,0,4.9-2.2,4.9-4.9v0c0-2.7-2.2-4.9-4.9-4.9h0h-0.1
		h0c-2.7,0-4.9,2.2-4.9,4.9v0C104.3,51.6,106.5,53.8,109.3,53.8L109.3,53.8L109.3,53.8z M121.6,90.1v3.6h7.3v-3.6V52v-3.6h-7.3V52
		V90.1z M138.7,90.1v3.6h7.3v-3.6V52v-3.6h-7.3V52V90.1z M151.1,76.7c0,8.8,7.3,17.1,15.6,17.1c3,0,5.9-1.1,8.3-2.9v2.9h7.3v-3.6
		V76.7v-0.2V63.2v-3.6h-7.3v2.9c-2.4-1.8-5.3-2.9-8.3-2.9C158.5,59.6,151.1,67.8,151.1,76.7 M158.4,76.7c0-6.1,3.4-9.9,8.3-9.9
		c5,0.1,8.3,3.8,8.3,9.9V77c-0.1,5.9-3.4,9.6-8.3,9.6C161.7,86.6,158.4,82.8,158.4,76.7 M194.9,93.7L194.9,93.7
		c2.7,0,4.9-2.2,4.9-4.9v0c0-2.7-2.2-4.9-4.9-4.9h0h-0.1h0c-2.7,0-4.9,2.2-4.9,4.9v0C189.9,91.6,192.1,93.7,194.9,93.7L194.9,93.7
		L194.9,93.7z"/>
</g>
</svg>
