<?xml version="1.0" encoding="UTF-8"?>
<svg width="24px" height="25px" viewBox="0 0 24 25" version="1.1" xmlns="http://www.w3.org/2000/svg" xmlns:xlink="http://www.w3.org/1999/xlink">
    <title>icon-web-my-orders</title>
    <g id="icon-web-my-orders" stroke="none" stroke-width="1" fill="none" fill-rule="evenodd">
        <rect id="Rectangle" fill="#FFFFFF" opacity="0" x="-11" y="-10" width="45" height="45"></rect>
        <g id="mis-ordenes-desde-web" fill="#333333">
            <path d="M4.90909091,22.4345455 L4.90909091,16.74 L8.54181818,14.3836364 C11.0945455,13.5981818 13.7454545,13.0090909 16.3963636,12.5181818 C16.4945455,12.5672727 16.6418182,12.7636364 16.74,13.0581818 C16.2490909,13.6963636 13.4018182,14.9236364 10.5054545,15.7090909 L10.3090909,15.8072727 C10.2109091,15.8563636 10.1127273,15.9054545 10.0636364,16.0036364 L9.91636364,16.1509091 C9.86727273,16.2490909 9.76909091,16.3472727 9.67090909,16.5436364 C9.62181818,16.6909091 9.57272727,16.8872727 9.57272727,17.0345455 L9.62181818,19.1454545 C9.62181818,19.9309091 10.3090909,20.4709091 10.9963636,20.52 L14.5309091,20.4709091 C13.5490909,21.1090909 12.7636364,21.5509091 12.2727273,21.6490909 L4.90909091,22.4345455 L4.90909091,22.4345455 Z M10.7509091,4.81090909 L12.0763636,4.81090909 L12.0763636,7.60909091 L13.6472727,7.60909091 L13.6472727,4.81090909 L18.5563636,4.81090909 L18.5563636,7.60909091 L20.1272727,7.60909091 L20.1272727,4.81090909 L21.5018182,4.81090909 L22.2381818,18.8018182 L19.2436364,18.8018182 L19.2927273,18.7527273 L16.9854545,18.8018182 L16.6909091,18.8018182 L11.2418182,18.9 L11.1927273,17.2309091 C12.1745455,16.9363636 16.8872727,15.4636364 18.0654545,14.04 C18.3109091,13.7454545 18.4090909,13.3527273 18.4090909,12.96 C18.4090909,12.6654545 18.3109091,12.3218182 18.1636364,12.0272727 C17.82,11.4381818 17.1327273,10.8490909 16.3963636,10.8490909 L16.2981818,10.8490909 C14.3345455,11.1927273 12.3218182,11.6345455 10.4072727,12.1745455 L10.7509091,4.81090909 Z M16.1018182,1.62 C17.0345455,1.62 17.82,2.20909091 18.2127273,3.14181818 L13.9418182,3.14181818 C14.3836364,2.25818182 15.1690909,1.62 16.1018182,1.62 Z M1.71818182,22.9254545 L3.28909091,22.9254545 L3.28909091,16.2 L1.71818182,16.2 L1.71818182,22.9254545 Z M17.28,20.4709091 L23.9072727,20.4709091 L23.0236364,3.19090909 L19.9309091,3.19090909 C19.3909091,1.32545455 17.9672727,0 16.1018182,0 C14.2363636,0 12.8127273,1.27636364 12.2727273,3.19090909 L9.22909091,3.19090909 L8.73818182,12.6654545 C8.49272727,12.7145455 8.24727273,12.8127273 8.00181818,12.8618182 L4.86,14.8745455 L4.86,14.58 L0.0981818182,14.58 L0.0981818182,24.5454545 L4.86,24.5454545 L4.86,24.1036364 L12.4690909,23.3181818 C13.9909091,22.9745455 16.0527273,21.4527273 17.28,20.4709091 Z" id="Shape"></path>
        </g>
    </g>
</svg>