<?xml version="1.0" encoding="UTF-8"?>
<svg width="21px" height="25px" viewBox="0 0 21 25" version="1.1" xmlns="http://www.w3.org/2000/svg" xmlns:xlink="http://www.w3.org/1999/xlink">
    <title>icon-web-my-account</title>
    <g id="icon-web-my-account" stroke="none" stroke-width="1" fill="none" fill-rule="evenodd">
        <rect id="Rectangle" fill="#FFFFFF" opacity="0" x="-12" y="-10" width="45" height="45"></rect>
        <g id="mi-cuenta-desde-web" fill="#333333" fill-rule="nonzero">
            <path d="M5.91836735,16.4285714 C3.67346939,16.4285714 1.98979592,18.2653061 1.98979592,20.3571429 L1.98979592,24.8979592 L0.153061224,24.8979592 L0.153061224,20.3571429 C0.153061224,17.244898 2.85714286,14.7959184 5.91836735,14.7959184 L15.1530612,14.7959184 C18.3673469,14.8979592 20.7653061,17.2959184 20.7653061,20.3571429 L20.7653061,24.8979592 L18.9285714,24.8979592 L18.9285714,20.5612245 C18.9285714,16.2244898 15,16.4285714 15,16.4285714 L5.91836735,16.4285714 Z M10.4591837,0.102040816 C6.73469388,0.102040816 3.67346939,3.21428571 3.67346939,6.8877551 C3.67346939,10.6122449 6.78571429,13.6734694 10.4591837,13.6734694 C14.1326531,13.6734694 17.244898,10.5612245 17.244898,6.8877551 C17.244898,3.21428571 14.1836735,0.102040816 10.4591837,0.102040816 Z M10.4591837,12.0918367 C7.55102041,12.0918367 5.30612245,9.84693878 5.30612245,6.93877551 C5.30612245,4.03061224 7.55102041,1.78571429 10.4591837,1.78571429 C13.3673469,1.78571429 15.6122449,4.03061224 15.6122449,6.93877551 C15.6122449,9.79591837 13.3673469,12.0918367 10.4591837,12.0918367 Z" id="Shape"></path>
        </g>
    </g>
</svg>