<?xml version="1.0" encoding="UTF-8"?>
<svg width="23px" height="23px" viewBox="0 0 23 23" version="1.1" xmlns="http://www.w3.org/2000/svg" xmlns:xlink="http://www.w3.org/1999/xlink">
    <title>icon-web-time</title>
    <g id="icon-web-time" stroke="none" stroke-width="1" fill="none" fill-rule="evenodd">
        <rect id="Rectangle" fill="#FFFFFF" opacity="0" x="-11" y="-11" width="45" height="45"></rect>
        <g id="horario-tiendas-desde-web" fill="#333333" fill-rule="nonzero">
            <path d="M11.5,0 C17.9144444,0.0511111111 23.0511111,5.23888889 23,11.5766667 C22.9488889,17.8633333 17.8122222,23 11.5,23 L11.4233333,23 C8.35666667,22.9744444 5.46888889,21.7733333 3.32222222,19.5755556 C1.15,17.4033333 -0.0255555556,14.49 -1.58022467e-16,11.4233333 C0.0511111111,5.13666667 5.18777778,0 11.5,0 Z M11.5766667,1.55888889 C6.05666667,1.55888889 1.58444444,6.00555556 1.55888889,11.4488889 C1.53333333,14.1066667 2.55555556,16.6111111 4.39555556,18.4766667 C6.28666667,20.3677778 8.76555556,21.4155556 11.4233333,21.4411111 L11.5,21.4411111 C16.9433333,21.4411111 21.4155556,17.02 21.4667769,11.5766667 C21.4922222,6.08222222 17.0711111,1.58444444 11.5766667,1.55888889 Z M11.3977778,3.83333333 C11.8066667,3.83333333 12.1388889,4.16555556 12.1388889,4.57444444 L12.1388889,11.1933333 L16.9177778,11.1933333 C17.3266667,11.1933333 17.6588889,11.5255556 17.6588889,11.9344444 C17.6588889,12.3433333 17.3266667,12.6755556 16.9177778,12.6755556 L11.3977778,12.6755556 C10.9888889,12.6755556 10.6566667,12.3433333 10.6566667,11.9344444 L10.6566667,4.57444444 C10.6566667,4.16555556 10.9888889,3.83333333 11.3977778,3.83333333 L11.3977778,3.83333333 Z" id="Shape"></path>
        </g>
    </g>
</svg>