<?xml version="1.0" encoding="utf-8"?>
<!-- Generator: Adobe Illustrator 24.0.0, SVG Export Plug-In . SVG Version: 6.00 Build 0)  -->
<svg version="1.1" xmlns="http://www.w3.org/2000/svg" xmlns:xlink="http://www.w3.org/1999/xlink" x="0px" y="0px"
	 viewBox="0 0 23 23" style="enable-background:new 0 0 23 23;" xml:space="preserve">
<style type="text/css">
	.st0{fill:#384044;}
</style>
<g id="Capa_1">
	<g>
		<path class="st0" d="M22.92,10.3c-0.24-2.31-1.18-4.51-2.69-6.27C20.06,3.83,19.75,3.81,19.55,4l-0.99,0.94
			c-0.18,0.17-0.2,0.45-0.04,0.65c0.06,0.07,0.12,0.15,0.18,0.22c0.02,0.03,0.04,0.05,0.07,0.09c0.1,0.13,0.23,0.31,0.38,0.53
			c0.81,1.23,1.32,2.66,1.47,4.13c0.23,2.19-0.34,4.43-1.68,6.31c-0.7,0.98,0.83,2.65,1.18,2.24c0.23-0.27,0.47-0.55,0.63-0.78
			c0.12-0.16,0.23-0.32,0.34-0.48C22.54,15.68,23.2,12.91,22.92,10.3"/>
		<path class="st0" d="M5.11,4.3c0.17,0.18,0.45,0.21,0.64,0.05c1.42-1.15,3.04-1.81,4.87-1.99c2.19-0.22,4.35,0.37,6.15,1.62
			c0.98,0.69,2.66-0.85,2.24-1.19c-0.41-0.34-0.65-0.52-0.77-0.61c-0.16-0.12-0.32-0.23-0.49-0.33c-2.18-1.42-4.74-2.05-7.35-1.79
			C8.08,0.28,5.92,1.18,4.15,2.67C3.94,2.85,3.89,3.13,4.08,3.33L5.11,4.3z"/>
		<path class="st0" d="M4.5,17.4c-0.13-0.15-0.25-0.31-0.36-0.47c-0.08-0.11-0.18-0.25-0.28-0.4c-0.8-1.2-1.3-2.55-1.46-4.05
			c-0.25-2.3,0.39-4.58,1.67-6.37c0.7-0.97-0.83-2.65-1.17-2.23C2.55,4.3,2.35,4.54,2.27,4.66C2.15,4.82,2.03,4.99,1.92,5.15
			c-1.46,2.16-2.13,4.97-1.85,7.58c0.25,2.31,1.18,4.48,2.69,6.23c0.18,0.21,0.45,0.24,0.65,0.06l1.03-0.97
			C4.63,17.88,4.66,17.59,4.5,17.4"/>
		<path class="st0" d="M17.89,18.68c-0.17-0.19-0.45-0.21-0.64-0.06c-1.42,1.14-3.19,1.84-5.02,1.99c-2.2,0.17-4.17-0.33-5.94-1.62
			c-0.97-0.7-2.71,0.83-2.3,1.18c0.41,0.35,0.66,0.53,0.78,0.62c0.16,0.12,0.16,0.12,0.32,0.22c2.16,1.46,4.71,2.15,7.33,1.94
			c2.32-0.18,4.64-1.18,6.44-2.64c0.21-0.17,0.24-0.48,0.06-0.69L17.89,18.68z"/>
		<path class="st0" d="M13.26,11.76c0.11,0,0.16-0.1,0.15-0.16v-0.29v-0.17l0,0h-0.67v-0.73l-0.01,0l0.01,0h-0.58
			c-0.14,0-0.19,0.12-0.19,0.19v0.34v0.2h-0.49v0.61h0.49v0.89v0.28c0,0.54,0.39,0.75,0.9,0.75c0.18,0,0.37-0.02,0.54-0.08v-0.64
			c-0.07,0.06-0.23,0.07-0.31,0.07c-0.3,0-0.35-0.16-0.36-0.39c0-0.02,0-0.05,0-0.07v-0.82H13.26z"/>
		<path class="st0" d="M5.97,13.7c0.61,0,1.02-0.47,1.12-1.05c0.02-0.09,0.03-0.19,0.03-0.29c0-0.76-0.49-1.29-1.23-1.29
			c-0.35,0-0.65,0.21-0.77,0.39H5.1v-0.33H4.34v3.76h0.43c0.24-0.03,0.32-0.2,0.34-0.35l0-1.17h0.01C5.29,13.61,5.65,13.7,5.97,13.7
			 M5.1,12.39c0-0.38,0.23-0.63,0.62-0.63c0.39,0,0.62,0.26,0.62,0.63c0,0.1-0.02,0.19-0.05,0.26c-0.08,0.23-0.29,0.37-0.57,0.37
			c-0.29,0-0.49-0.14-0.57-0.37C5.12,12.57,5.1,12.49,5.1,12.39"/>
		<path class="st0" d="M10.6,13.64h0.77v-0.98v-0.38c0-0.66-0.14-1.17-0.92-1.17c-0.31,0-0.54,0.14-0.66,0.31l-0.04,0.06
			c0,0,0-0.06,0-0.09v0l0-0.01v-0.01l0,0l0-0.01l0-0.02l0-0.01l-0.01-0.02l-0.01-0.01l-0.01-0.02l-0.01-0.01l-0.01-0.02l-0.01-0.01
			L9.66,11.2l-0.01-0.01l-0.02-0.01l-0.02-0.01l-0.05-0.01H8.98v1.23c0,0.09-0.01,0.18-0.02,0.26c-0.04,0.21-0.15,0.37-0.44,0.37
			c-0.27,0-0.35-0.17-0.38-0.37c-0.01-0.09-0.02-0.19-0.02-0.28v-1.21H7.58c-0.07,0.01-0.2,0.04-0.21,0.2v1.17c0,0.04,0,0.08,0,0.13
			c0.02,0.6,0.19,1.04,0.91,1.04c0.31,0,0.54-0.15,0.66-0.31l0.03-0.04l0.04-0.07v0.1v0.02v0l0,0.02v0l0,0.01l0.01,0.03l0,0.01
			l0.01,0.02l0,0c0.02,0.06,0.08,0.12,0.19,0.13h0.16h0.37v-0.98V12.4c0-0.32,0.06-0.63,0.46-0.63c0.39,0,0.4,0.37,0.4,0.65v0.23
			V13.64z"/>
		<path class="st0" d="M13.63,12.39c0,0.09,0.01,0.18,0.02,0.26c0.12,0.64,0.68,1.04,1.36,1.04c0.68,0,1.24-0.4,1.36-1.04
			c0.02-0.08,0.03-0.17,0.03-0.26c0-0.79-0.62-1.3-1.38-1.3C14.24,11.09,13.63,11.6,13.63,12.39 M15.62,12.39
			c0,0.09-0.02,0.18-0.04,0.26c-0.08,0.23-0.29,0.37-0.57,0.37c-0.29,0-0.49-0.14-0.57-0.37c-0.03-0.08-0.04-0.16-0.04-0.26
			c0-0.37,0.23-0.63,0.62-0.63C15.39,11.76,15.62,12.02,15.62,12.39"/>
		<path class="st0" d="M17.62,11.67c0.18,0,0.33,0.07,0.44,0.21l0.47-0.46c-0.23-0.24-0.59-0.32-0.92-0.32
			c-0.52,0-1.04,0.25-1.04,0.83c0,0.52,0.4,0.65,0.75,0.73c0.28,0.06,0.54,0.1,0.54,0.27c0,0.13-0.17,0.18-0.35,0.18
			c-0.23,0-0.4-0.1-0.54-0.27l-0.46,0.51c0.25,0.25,0.63,0.34,0.97,0.34c0.53,0,1.14-0.18,1.14-0.81c0-0.08-0.01-0.15-0.03-0.22
			c-0.19-0.68-1.26-0.45-1.26-0.78C17.34,11.72,17.49,11.67,17.62,11.67"/>
		<path class="st0" d="M5.06,8.78C5.11,8.7,5.17,8.65,5.25,8.61C5.32,8.57,5.41,8.55,5.5,8.55c0.09,0,0.17,0.01,0.24,0.02
			C5.82,8.58,5.9,8.61,5.99,8.64c0.03,0.01,0.06,0.01,0.07,0.01c0.01-0.01,0.03-0.03,0.04-0.06L6.2,8.34
			C6.22,8.3,6.22,8.27,6.22,8.26c0-0.01-0.02-0.03-0.05-0.04c-0.11-0.06-0.22-0.1-0.34-0.12C5.72,8.07,5.6,8.06,5.48,8.06
			c-0.17,0-0.33,0.03-0.47,0.09C4.87,8.22,4.75,8.3,4.66,8.42c-0.1,0.11-0.18,0.25-0.23,0.41C4.37,8.98,4.34,9.16,4.34,9.35
			c0,0.2,0.02,0.37,0.07,0.53c0.04,0.16,0.11,0.29,0.2,0.4c0.09,0.11,0.21,0.19,0.35,0.25c0.14,0.06,0.31,0.09,0.5,0.09
			c0.14,0,0.28-0.01,0.42-0.04c0.14-0.03,0.27-0.08,0.4-0.16c0.02-0.01,0.03-0.03,0.04-0.04c0-0.02,0-0.04-0.02-0.07l-0.12-0.25
			C6.16,10.02,6.15,10,6.13,9.99C6.12,9.99,6.1,9.99,6.06,10c-0.08,0.03-0.16,0.06-0.24,0.08c-0.09,0.03-0.19,0.04-0.3,0.04
			c-0.12,0-0.21-0.02-0.29-0.06c-0.08-0.04-0.14-0.09-0.19-0.16c-0.05-0.07-0.08-0.15-0.1-0.24c-0.02-0.09-0.03-0.2-0.03-0.32
			c0-0.12,0.01-0.22,0.04-0.32C4.97,8.93,5.01,8.85,5.06,8.78"/>
		<path class="st0" d="M7.49,10.13c0.03,0.06,0.05,0.1,0.08,0.12c0.02,0.02,0.06,0.03,0.12,0.03h0.19c0.05,0,0.09-0.01,0.12-0.03
			c0.03-0.02,0.05-0.06,0.08-0.12l0.29-0.65l0.15-0.33h0.02v1.36c0,0.03,0.01,0.05,0.02,0.06c0.01,0.01,0.03,0.01,0.06,0.01h0.35
			c0.03,0,0.05,0,0.06-0.01c0.01-0.01,0.02-0.03,0.02-0.06V8.33c0-0.09-0.02-0.15-0.06-0.18C8.96,8.11,8.91,8.1,8.83,8.1H8.66
			c-0.08,0-0.13,0.01-0.16,0.04C8.46,8.16,8.43,8.21,8.4,8.27L8.04,9.08L7.8,9.63H7.78l-0.22-0.5L7.18,8.26
			C7.15,8.2,7.12,8.16,7.09,8.13C7.06,8.11,7.01,8.1,6.94,8.1H6.74c-0.08,0-0.14,0.02-0.18,0.06c-0.03,0.04-0.05,0.1-0.05,0.19v2.16
			c0,0.03,0.01,0.05,0.02,0.06c0.01,0.01,0.03,0.01,0.06,0.01h0.36c0.03,0,0.05,0,0.06-0.01c0.01-0.01,0.02-0.03,0.02-0.06V9.19
			h0.02l0.22,0.48L7.49,10.13z"/>
		<path class="st0" d="M11.4,10.55c0.01-0.02,0.01-0.04,0-0.05l-0.18-0.71c-0.02-0.08-0.05-0.16-0.08-0.22
			c-0.03-0.06-0.09-0.12-0.17-0.15l0-0.02c0.11-0.06,0.19-0.14,0.24-0.24c0.06-0.11,0.08-0.22,0.08-0.34c0-0.22-0.07-0.39-0.21-0.52
			c-0.14-0.13-0.34-0.19-0.6-0.19H9.62c-0.09,0-0.14,0.02-0.17,0.05C9.43,8.19,9.41,8.24,9.41,8.31v2.19c0,0.03,0.01,0.05,0.02,0.06
			s0.03,0.02,0.06,0.02h0.38c0.04,0,0.06,0,0.07-0.01c0.01-0.01,0.01-0.03,0.01-0.06V9.57h0.34c0.11,0,0.19,0.02,0.25,0.07
			c0.06,0.04,0.11,0.13,0.14,0.24l0.16,0.63c0.01,0.04,0.03,0.06,0.06,0.06c0.03,0.01,0.06,0.01,0.08,0.01h0.37
			C11.38,10.58,11.4,10.57,11.4,10.55 M10.66,9.06c-0.05,0.05-0.13,0.08-0.24,0.08H9.96V8.57h0.48c0.06,0,0.11,0.01,0.15,0.03
			c0.04,0.02,0.07,0.04,0.1,0.07c0.02,0.03,0.04,0.06,0.05,0.09c0.01,0.03,0.01,0.06,0.01,0.1C10.75,8.93,10.72,9,10.66,9.06"/>
	</g>
</g>
<g id="Capa_2">
</g>
</svg>
