<?xml version="1.0" encoding="UTF-8"?>
<svg xmlns="http://www.w3.org/2000/svg" xmlns:xlink="http://www.w3.org/1999/xlink" width="16px" height="11px" viewBox="0 0 16 11" version="1.1">
<g id="surface1">
<path style=" stroke:none;fill-rule:nonzero;fill:rgb(0%,0%,0%);fill-opacity:1;" d="M 0.1875 5.625 L 0.1875 10.960938 L 16 10.960938 L 16 0.289062 L 0.1875 0.289062 Z M 15.441406 5.578125 L 15.441406 10.289062 L 0.746094 10.289062 L 0.746094 0.867188 L 15.441406 0.867188 Z M 15.441406 5.578125 "/>
<path style=" stroke:none;fill-rule:nonzero;fill:rgb(0%,0%,0%);fill-opacity:1;" d="M 3.859375 3.453125 C 2.921875 3.691406 2.324219 4.441406 2.324219 5.382812 C 2.324219 7.085938 4.371094 8.019531 5.636719 6.882812 C 5.945312 6.617188 5.972656 6.558594 5.871094 6.367188 C 5.730469 6.097656 5.609375 6.097656 5.191406 6.394531 C 4.6875 6.742188 4.203125 6.796875 3.738281 6.546875 C 2.464844 5.875 2.929688 4.097656 4.382812 4.097656 C 4.632812 4.097656 4.910156 4.164062 5.050781 4.257812 C 5.285156 4.414062 5.859375 4.394531 5.859375 4.242188 C 5.859375 4.046875 5.210938 3.558594 4.835938 3.472656 C 4.363281 3.355469 4.25 3.355469 3.859375 3.453125 Z M 3.859375 3.453125 "/>
<path style=" stroke:none;fill-rule:nonzero;fill:rgb(0%,0%,0%);fill-opacity:1;" d="M 9.394531 3.644531 C 9.320312 3.691406 9.050781 4.171875 8.789062 4.703125 C 8.539062 5.242188 8.308594 5.671875 8.277344 5.671875 C 8.242188 5.671875 8.019531 5.347656 7.765625 4.941406 C 7.347656 4.25 7.3125 4.210938 7.042969 4.269531 C 6.894531 4.296875 6.667969 4.328125 6.550781 4.328125 L 6.324219 4.328125 L 6.324219 5.914062 C 6.324219 7.414062 6.335938 7.5 6.519531 7.597656 C 6.902344 7.808594 6.976562 7.585938 6.976562 6.269531 C 6.976562 4.855469 6.957031 4.867188 7.75 6.183594 L 8.261719 7.027344 L 8.800781 5.992188 C 9.089844 5.421875 9.367188 4.882812 9.40625 4.808594 C 9.449219 4.730469 9.488281 5.25 9.488281 5.992188 L 9.488281 7.316406 L 9.84375 7.289062 L 10.1875 7.257812 L 10.214844 5.605469 C 10.234375 4.046875 10.222656 3.933594 10.046875 3.75 C 9.851562 3.546875 9.628906 3.507812 9.394531 3.644531 Z M 9.394531 3.644531 "/>
<path style=" stroke:none;fill-rule:nonzero;fill:rgb(0%,0%,0%);fill-opacity:1;" d="M 10.699219 5.433594 C 10.699219 7.039062 10.714844 7.222656 10.847656 7.171875 C 10.929688 7.144531 11.070312 7.117188 11.171875 7.117188 C 11.339844 7.117188 11.347656 7.027344 11.347656 5.722656 L 11.347656 4.328125 L 11.859375 4.328125 C 12.289062 4.328125 12.417969 4.367188 12.605469 4.566406 C 12.734375 4.691406 12.835938 4.847656 12.835938 4.902344 C 12.835938 5.078125 12.390625 5.480469 12.203125 5.480469 C 11.972656 5.480469 11.722656 5.777344 11.722656 6.046875 C 11.722656 6.269531 12.472656 7.164062 12.949219 7.519531 C 13.152344 7.664062 13.246094 7.683594 13.394531 7.597656 C 13.496094 7.539062 13.582031 7.441406 13.582031 7.375 C 13.582031 7.316406 13.320312 7 13.003906 6.664062 C 12.445312 6.078125 12.4375 6.066406 12.667969 6.007812 C 12.800781 5.972656 13.023438 5.816406 13.171875 5.664062 C 13.367188 5.453125 13.421875 5.296875 13.421875 4.960938 C 13.421875 4.078125 12.949219 3.730469 11.609375 3.671875 L 10.699219 3.632812 Z M 10.699219 5.433594 "/>
</g>
</svg>
